0
SECTION
2
HEADER
9
$INSUNITS
70
4
0
ENDSEC
0
SECTION
2
TABLES
0
TABLE
2
LTYPE
0
LTYPE
72
65
70
64
2
CONTINUOUS
3
______
73
0
40
0
0
ENDTAB
0
TABLE
2
LAYER
0
ENDTAB
0
ENDSEC
0
SECTION
2
ENTITIES
0
LINE
8
0
10
91.25
20
-108.25
11
108.75
21
-108.25
0
LINE
8
0
10
108.75
20
-108.25
11
108.75
21
-91.75
0
LINE
8
0
10
108.75
20
-91.75
11
91.25
21
-91.75
0
LINE
8
0
10
91.25
20
-91.75
11
91.25
21
-108.25
0
LINE
8
0
10
91.25
20
-91.25
11
108.75
21
-91.25
0
LINE
8
0
10
108.75
20
-91.25
11
108.75
21
-74.75
0
LINE
8
0
10
108.75
20
-74.75
11
91.25
21
-74.75
0
LINE
8
0
10
91.25
20
-74.75
11
91.25
21
-91.25
0
LINE
8
0
10
91.25
20
-74.25
11
108.75
21
-74.25
0
LINE
8
0
10
108.75
20
-74.25
11
108.75
21
-57.75
0
LINE
8
0
10
108.75
20
-57.75
11
91.25
21
-57.75
0
LINE
8
0
10
91.25
20
-57.75
11
91.25
21
-74.25
0
LINE
8
0
10
109.25
20
-108.25
11
126.75
21
-108.25
0
LINE
8
0
10
126.75
20
-108.25
11
126.75
21
-91.75
0
LINE
8
0
10
126.75
20
-91.75
11
109.25
21
-91.75
0
LINE
8
0
10
109.25
20
-91.75
11
109.25
21
-108.25
0
LINE
8
0
10
109.25
20
-91.25
11
126.75
21
-91.25
0
LINE
8
0
10
126.75
20
-91.25
11
126.75
21
-74.75
0
LINE
8
0
10
126.75
20
-74.75
11
109.25
21
-74.75
0
LINE
8
0
10
109.25
20
-74.75
11
109.25
21
-91.25
0
LINE
8
0
10
109.25
20
-74.25
11
126.75
21
-74.25
0
LINE
8
0
10
126.75
20
-74.25
11
126.75
21
-57.75
0
LINE
8
0
10
126.75
20
-57.75
11
109.25
21
-57.75
0
LINE
8
0
10
109.25
20
-57.75
11
109.25
21
-74.25
0
LINE
8
0
10
127.25
20
-108.25
11
144.75
21
-108.25
0
LINE
8
0
10
144.75
20
-108.25
11
144.75
21
-91.75
0
LINE
8
0
10
144.75
20
-91.75
11
127.25
21
-91.75
0
LINE
8
0
10
127.25
20
-91.75
11
127.25
21
-108.25
0
LINE
8
0
10
127.25
20
-91.25
11
144.75
21
-91.25
0
LINE
8
0
10
144.75
20
-91.25
11
144.75
21
-74.75
0
LINE
8
0
10
144.75
20
-74.75
11
127.25
21
-74.75
0
LINE
8
0
10
127.25
20
-74.75
11
127.25
21
-91.25
0
LINE
8
0
10
127.25
20
-74.25
11
144.75
21
-74.25
0
LINE
8
0
10
144.75
20
-74.25
11
144.75
21
-57.75
0
LINE
8
0
10
144.75
20
-57.75
11
127.25
21
-57.75
0
LINE
8
0
10
127.25
20
-57.75
11
127.25
21
-74.25
0
LINE
8
0
10
145.25
20
-108.25
11
162.75
21
-108.25
0
LINE
8
0
10
162.75
20
-108.25
11
162.75
21
-91.75
0
LINE
8
0
10
162.75
20
-91.75
11
145.25
21
-91.75
0
LINE
8
0
10
145.25
20
-91.75
11
145.25
21
-108.25
0
LINE
8
0
10
145.25
20
-91.25
11
162.75
21
-91.25
0
LINE
8
0
10
162.75
20
-91.25
11
162.75
21
-74.75
0
LINE
8
0
10
162.75
20
-74.75
11
145.25
21
-74.75
0
LINE
8
0
10
145.25
20
-74.75
11
145.25
21
-91.25
0
LINE
8
0
10
145.25
20
-74.25
11
162.75
21
-74.25
0
LINE
8
0
10
162.75
20
-74.25
11
162.75
21
-57.75
0
LINE
8
0
10
162.75
20
-57.75
11
145.25
21
-57.75
0
LINE
8
0
10
145.25
20
-57.75
11
145.25
21
-74.25
0
LINE
8
0
10
163.25
20
-108.25
11
180.75
21
-108.25
0
LINE
8
0
10
180.75
20
-108.25
11
180.75
21
-91.75
0
LINE
8
0
10
180.75
20
-91.75
11
163.25
21
-91.75
0
LINE
8
0
10
163.25
20
-91.75
11
163.25
21
-108.25
0
ENDSEC
0
EOF